<?xml version="1.0" standalone="no"?>
<!DOCTYPE svg PUBLIC "-//W3C//DTD SVG 20010904//EN"
 "http://www.w3.org/TR/2001/REC-SVG-20010904/DTD/svg10.dtd">
<svg version="1.0" xmlns="http://www.w3.org/2000/svg"
 width="900.000000pt" height="900.000000pt" viewBox="0 0 900.000000 900.000000"
 preserveAspectRatio="xMidYMid meet">
<metadata>
Created by potrace 1.10, written by Peter Selinger 2001-2011
</metadata>
<g transform="translate(0.000000,900.000000) scale(0.100000,-0.100000)"
fill="#000000" stroke="none">
<path d="M4173 8988 c2 -14 -40 -25 -101 -27 -68 -2 -267 -54 -440 -116 -103
-37 -409 -204 -454 -248 -7 -7 -33 -27 -58 -44 -59 -41 -221 -191 -295 -273
-32 -36 -62 -67 -65 -70 -3 -3 -33 -41 -66 -85 -52 -68 -88 -122 -161 -240
-17 -26 -96 -188 -120 -245 -21 -49 -74 -216 -93 -295 -43 -176 -52 -269 -53
-520 -1 -291 12 -388 82 -630 38 -133 64 -198 134 -340 51 -102 56 -112 122
-210 91 -137 167 -228 306 -366 249 -248 511 -411 824 -513 194 -64 297 -83
520 -99 328 -23 658 17 900 110 22 8 58 22 80 31 62 24 226 103 270 131 62 40
79 50 95 57 8 4 60 42 115 83 199 150 457 434 580 641 44 72 145 275 145 290
0 5 6 24 14 42 54 127 89 268 121 483 13 83 16 161 13 320 -5 260 -15 334 -77
565 -135 504 -503 981 -978 1267 -98 59 -255 139 -303 154 -14 4 -50 17 -80
29 -30 12 -71 25 -90 29 -19 5 -53 13 -75 19 -117 32 -165 42 -196 42 -60 0
-109 12 -109 26 0 12 -46 14 -255 14 -192 0 -254 -3 -252 -12z m587 -558 c176
-36 378 -114 495 -190 17 -11 37 -23 45 -27 85 -39 342 -279 446 -418 53 -71
154 -228 154 -240 0 -3 13 -33 28 -67 105 -234 149 -503 130 -795 -26 -402
-178 -730 -474 -1027 -263 -264 -563 -418 -909 -466 -194 -26 -290 -25 -555
10 -187 24 -483 149 -636 268 -16 12 -44 33 -63 47 -39 28 -141 126 -216 206
-54 58 -155 183 -155 192 0 3 -13 26 -30 50 -16 25 -44 73 -60 108 -17 35 -36
73 -42 83 -6 11 -14 31 -18 45 -5 14 -20 57 -34 95 -14 38 -26 80 -26 93 0 13
-5 33 -11 44 -10 20 -20 90 -39 276 -10 97 -6 180 20 388 19 161 107 401 203
555 137 219 343 430 547 558 138 87 355 179 469 198 20 3 51 10 69 16 107 32
504 32 662 -2z"/>
<path d="M2435 4623 c-171 -30 -346 -79 -425 -118 -14 -7 -50 -24 -80 -39 -68
-32 -122 -63 -179 -101 -24 -17 -55 -38 -70 -47 -113 -76 -381 -376 -434 -488
-4 -8 -16 -28 -27 -45 -31 -47 -178 -347 -185 -378 -4 -15 -11 -30 -16 -33 -5
-3 -9 -13 -9 -23 0 -10 -11 -44 -25 -75 -14 -31 -29 -73 -35 -94 -5 -20 -18
-68 -29 -107 -19 -63 -35 -132 -76 -310 -8 -33 -21 -105 -30 -160 -9 -55 -22
-136 -30 -180 -8 -44 -15 -99 -15 -123 0 -23 -7 -88 -16 -145 -12 -78 -16
-191 -17 -477 -2 -357 -1 -380 21 -488 38 -184 110 -377 185 -497 211 -337
529 -563 922 -655 174 -41 134 -40 2617 -40 2412 0 2427 0 2598 37 444 96 811
376 994 758 58 120 93 214 106 280 4 22 12 60 18 85 24 100 35 204 39 378 9
313 -39 852 -102 1152 -7 36 -21 101 -30 145 -16 79 -29 128 -61 243 -31 107
-47 157 -61 189 -7 17 -13 34 -13 38 0 21 -81 205 -146 332 -176 345 -400 602
-659 759 -83 51 -305 154 -330 154 -8 0 -29 6 -47 14 -85 36 -337 76 -478 76
-148 0 -167 -6 -360 -121 -58 -34 -116 -70 -130 -80 -42 -29 -234 -153 -250
-162 -8 -4 -28 -16 -45 -27 -40 -26 -209 -110 -243 -120 -15 -5 -52 -18 -82
-30 -235 -90 -315 -109 -595 -141 -168 -18 -466 14 -620 67 -23 8 -48 14 -57
14 -10 0 -32 6 -50 14 -18 8 -51 21 -73 29 -106 39 -157 60 -232 95 -50 23
-223 126 -301 179 -35 24 -65 43 -67 43 -2 0 -33 20 -69 45 -37 25 -68 45 -71
45 -2 0 -23 13 -47 29 -51 34 -146 83 -206 105 -54 20 -261 20 -377 -1z m321
-563 c45 -27 124 -78 177 -112 226 -149 368 -231 492 -283 17 -7 44 -19 60
-26 124 -53 348 -124 480 -153 163 -36 244 -46 417 -52 266 -9 435 7 658 63
52 13 111 28 130 32 40 10 90 27 138 47 18 8 38 14 46 14 13 0 151 58 266 112
78 36 174 92 290 166 47 31 114 74 150 97 36 23 99 64 140 91 l75 49 105 -2
c95 -2 168 -15 255 -44 17 -6 44 -14 60 -18 49 -13 201 -96 275 -151 78 -58
213 -209 285 -320 27 -41 75 -127 108 -190 53 -104 69 -140 97 -220 5 -14 18
-50 30 -80 12 -30 26 -71 30 -90 5 -19 18 -66 30 -105 11 -38 24 -93 30 -122
5 -28 13 -68 19 -90 25 -96 60 -311 72 -438 4 -49 13 -128 18 -175 6 -47 11
-227 12 -400 1 -332 -1 -353 -51 -516 -42 -137 -140 -284 -252 -380 -130 -111
-246 -167 -458 -220 -72 -18 -156 -19 -2460 -19 -2283 0 -2388 1 -2455 18
-121 32 -205 59 -211 68 -3 5 -12 9 -19 9 -36 0 -190 105 -269 185 -193 193
-270 416 -268 770 1 194 26 623 42 720 6 39 18 113 26 165 32 208 97 476 151
624 14 39 32 89 40 111 47 132 205 410 285 505 79 92 170 177 238 222 71 47
209 118 230 118 5 0 24 6 42 14 43 18 162 45 218 49 139 10 141 10 226 -43z"/>
</g>
</svg>
