<svg width="33" height="23" viewBox="0 0 33 23" fill="none" xmlns="http://www.w3.org/2000/svg">
<path d="M13.0458 18V4.18182H16.3857V15.2876H22.1342V18H13.0458Z" fill="url(#paint0_linear_242_15)"/>
<path d="M1.04581 4.18182H5.18182L8.69034 12.7372H8.85227L12.3608 4.18182H16.4968V18H13.2447V9.51207H13.13L9.81037 17.9123H7.73224L4.41264 9.46484H4.29794V18H1.04581V4.18182Z" fill="url(#paint1_linear_242_15)"/>
<path d="M19.0071 15.0991C18.696 15.0991 18.4158 15.0437 18.1665 14.9329C17.9194 14.82 17.7234 14.6538 17.5785 14.4343C17.4357 14.2148 17.3643 13.9442 17.3643 13.6225C17.3643 13.3455 17.4155 13.1165 17.5178 12.9354C17.62 12.7543 17.7596 12.6094 17.9364 12.5007C18.1133 12.392 18.3125 12.31 18.5341 12.2546C18.7578 12.1971 18.989 12.1555 19.2276 12.13C19.5153 12.1001 19.7486 12.0735 19.9276 12.0501C20.1065 12.0245 20.2365 11.9862 20.3175 11.935C20.4006 11.8817 20.4421 11.7997 20.4421 11.6889V11.6697C20.4421 11.429 20.3707 11.2425 20.228 11.1104C20.0852 10.9783 19.8796 10.9123 19.6112 10.9123C19.3278 10.9123 19.103 10.9741 18.9368 11.0977C18.7727 11.2212 18.6619 11.3672 18.6044 11.5355L17.5241 11.3821C17.6094 11.0838 17.75 10.8345 17.946 10.6342C18.142 10.4318 18.3817 10.2805 18.6651 10.1804C18.9485 10.0781 19.2617 10.027 19.6048 10.027C19.8413 10.027 20.0767 10.0547 20.3111 10.1101C20.5455 10.1655 20.7596 10.2571 20.9535 10.3849C21.1474 10.5107 21.3029 10.6822 21.4201 10.8995C21.5394 11.1168 21.5991 11.3885 21.5991 11.7145V15H20.4869V14.3256H20.4485C20.3782 14.462 20.2791 14.5898 20.1513 14.7092C20.0256 14.8263 19.8668 14.9212 19.6751 14.9936C19.4854 15.0639 19.2628 15.0991 19.0071 15.0991ZM19.3075 14.2489C19.5398 14.2489 19.7411 14.2031 19.9116 14.1115C20.082 14.0178 20.2131 13.8942 20.3047 13.7408C20.3984 13.5874 20.4453 13.4201 20.4453 13.239V12.6605C20.4091 12.6903 20.3473 12.718 20.2599 12.7436C20.1747 12.7692 20.0788 12.7915 19.9723 12.8107C19.8658 12.8299 19.7603 12.8469 19.6559 12.8619C19.5515 12.8768 19.4609 12.8896 19.3842 12.9002C19.2116 12.9237 19.0572 12.962 18.9208 13.0153C18.7844 13.0685 18.6768 13.1431 18.598 13.239C18.5192 13.3327 18.4798 13.4542 18.4798 13.6033C18.4798 13.8164 18.5575 13.9773 18.7131 14.0859C18.8686 14.1946 19.0668 14.2489 19.3075 14.2489ZM22.8136 15V8.45455H23.9705V10.9027H24.0185C24.0781 10.7834 24.1623 10.6566 24.271 10.5224C24.3796 10.386 24.5266 10.2699 24.712 10.174C24.8974 10.076 25.1339 10.027 25.4215 10.027C25.8008 10.027 26.1428 10.1239 26.4474 10.3178C26.7543 10.5096 26.9972 10.794 27.1761 11.1712C27.3572 11.5462 27.4478 12.0064 27.4478 12.5518C27.4478 13.0909 27.3594 13.549 27.1825 13.9261C27.0057 14.3033 26.7649 14.5909 26.4602 14.7891C26.1555 14.9872 25.8104 15.0863 25.4247 15.0863C25.1435 15.0863 24.9102 15.0394 24.7248 14.9457C24.5394 14.8519 24.3903 14.739 24.2773 14.6069C24.1665 14.4727 24.0803 14.3459 24.0185 14.2266H23.9513V15H22.8136ZM23.9482 12.5455C23.9482 12.8629 23.9929 13.141 24.0824 13.3796C24.174 13.6183 24.305 13.8047 24.4755 13.9389C24.6481 14.071 24.8569 14.1371 25.1019 14.1371C25.3576 14.1371 25.5717 14.0689 25.7443 13.9325C25.9169 13.794 26.0469 13.6055 26.1342 13.3668C26.2237 13.1261 26.2685 12.8523 26.2685 12.5455C26.2685 12.2408 26.2248 11.9702 26.1374 11.7337C26.0501 11.4972 25.9201 11.3118 25.7475 11.1776C25.5749 11.0433 25.3597 10.9762 25.1019 10.9762C24.8548 10.9762 24.6449 11.0412 24.4723 11.1712C24.2997 11.3011 24.1687 11.4833 24.0792 11.7177C23.9918 11.9521 23.9482 12.228 23.9482 12.5455ZM32.3113 11.3885L31.2567 11.5036C31.2268 11.397 31.1746 11.2969 31.1001 11.2031C31.0276 11.1094 30.9296 11.0337 30.806 10.9762C30.6824 10.9187 30.5312 10.8899 30.3522 10.8899C30.1114 10.8899 29.909 10.9421 29.7449 11.0465C29.583 11.1509 29.5031 11.2862 29.5052 11.4524C29.5031 11.5952 29.5553 11.7113 29.6618 11.8008C29.7705 11.8903 29.9495 11.9638 30.1988 12.0213L31.0361 12.2003C31.5006 12.3004 31.8458 12.4592 32.0716 12.6765C32.2996 12.8938 32.4147 13.1783 32.4168 13.5298C32.4147 13.8388 32.3241 14.1115 32.1452 14.348C31.9683 14.5824 31.7222 14.7656 31.4069 14.8977C31.0915 15.0298 30.7293 15.0959 30.3202 15.0959C29.7194 15.0959 29.2357 14.9702 28.8692 14.7188C28.5028 14.4652 28.2844 14.1126 28.214 13.6609L29.3422 13.5522C29.3934 13.7738 29.502 13.9411 29.6682 14.054C29.8344 14.1669 30.0507 14.2234 30.317 14.2234C30.5919 14.2234 30.8124 14.1669 30.9786 14.054C31.1469 13.9411 31.2311 13.8015 31.2311 13.6353C31.2311 13.4947 31.1768 13.3786 31.0681 13.2869C30.9616 13.1953 30.7954 13.125 30.5695 13.076L29.7322 12.9002C29.2613 12.8022 28.9129 12.6371 28.6871 12.4048C28.4612 12.1705 28.3493 11.8743 28.3515 11.5163C28.3493 11.2138 28.4314 10.9517 28.5976 10.7301C28.7659 10.5064 28.9992 10.3338 29.2975 10.2124C29.5979 10.0888 29.9442 10.027 30.3362 10.027C30.9115 10.027 31.3643 10.1495 31.6945 10.3945C32.0269 10.6396 32.2325 10.9709 32.3113 11.3885Z" fill="url(#paint2_linear_242_15)"/>
<defs>
<linearGradient id="paint0_linear_242_15" x1="17.5" y1="0" x2="17.5" y2="23" gradientUnits="userSpaceOnUse">
<stop/>
<stop offset="1" stop-color="#1E3A8A"/>
</linearGradient>
<linearGradient id="paint1_linear_242_15" x1="9" y1="0" x2="9" y2="23" gradientUnits="userSpaceOnUse">
<stop/>
<stop offset="1" stop-color="#1E3A8A"/>
</linearGradient>
<linearGradient id="paint2_linear_242_15" x1="25" y1="6" x2="25" y2="17" gradientUnits="userSpaceOnUse">
<stop/>
<stop offset="1" stop-color="#1E3A8A"/>
</linearGradient>
</defs>
</svg>
