<svg width="40" height="40" viewBox="0 0 40 40" fill="none" xmlns="http://www.w3.org/2000/svg">
<rect width="40" height="40" rx="20" fill="white"/>
<path d="M17.0458 27V13.1818H20.3857V24.2876H26.1342V27H17.0458Z" fill="url(#paint0_linear_244_14)"/>
<path d="M5.04581 13.1818H9.18182L12.6903 21.7372H12.8523L16.3608 13.1818H20.4968V27H17.2447V18.5121H17.13L13.8104 26.9123H11.7322L8.41264 18.4648H8.29794V27H5.04581V13.1818Z" fill="url(#paint1_linear_244_14)"/>
<path d="M23.0071 24.0991C22.696 24.0991 22.4158 24.0437 22.1665 23.9329C21.9194 23.82 21.7234 23.6538 21.5785 23.4343C21.4357 23.2148 21.3643 22.9442 21.3643 22.6225C21.3643 22.3455 21.4155 22.1165 21.5178 21.9354C21.62 21.7543 21.7596 21.6094 21.9364 21.5007C22.1133 21.392 22.3125 21.31 22.5341 21.2546C22.7578 21.1971 22.989 21.1555 23.2276 21.13C23.5153 21.1001 23.7486 21.0735 23.9276 21.0501C24.1065 21.0245 24.2365 20.9862 24.3175 20.935C24.4006 20.8817 24.4421 20.7997 24.4421 20.6889V20.6697C24.4421 20.429 24.3707 20.2425 24.228 20.1104C24.0852 19.9783 23.8796 19.9123 23.6112 19.9123C23.3278 19.9123 23.103 19.9741 22.9368 20.0977C22.7727 20.2212 22.6619 20.3672 22.6044 20.5355L21.5241 20.3821C21.6094 20.0838 21.75 19.8345 21.946 19.6342C22.142 19.4318 22.3817 19.2805 22.6651 19.1804C22.9485 19.0781 23.2617 19.027 23.6048 19.027C23.8413 19.027 24.0767 19.0547 24.3111 19.1101C24.5455 19.1655 24.7596 19.2571 24.9535 19.3849C25.1474 19.5107 25.3029 19.6822 25.4201 19.8995C25.5394 20.1168 25.5991 20.3885 25.5991 20.7145V24H24.4869V23.3256H24.4485C24.3782 23.462 24.2791 23.5898 24.1513 23.7092C24.0256 23.8263 23.8668 23.9212 23.6751 23.9936C23.4854 24.0639 23.2628 24.0991 23.0071 24.0991ZM23.3075 23.2489C23.5398 23.2489 23.7411 23.2031 23.9116 23.1115C24.082 23.0178 24.2131 22.8942 24.3047 22.7408C24.3984 22.5874 24.4453 22.4201 24.4453 22.239V21.6605C24.4091 21.6903 24.3473 21.718 24.2599 21.7436C24.1747 21.7692 24.0788 21.7915 23.9723 21.8107C23.8658 21.8299 23.7603 21.8469 23.6559 21.8619C23.5515 21.8768 23.4609 21.8896 23.3842 21.9002C23.2116 21.9237 23.0572 21.962 22.9208 22.0153C22.7844 22.0685 22.6768 22.1431 22.598 22.239C22.5192 22.3327 22.4798 22.4542 22.4798 22.6033C22.4798 22.8164 22.5575 22.9773 22.7131 23.0859C22.8686 23.1946 23.0668 23.2489 23.3075 23.2489ZM26.8136 24V17.4545H27.9705V19.9027H28.0185C28.0781 19.7834 28.1623 19.6566 28.271 19.5224C28.3796 19.386 28.5266 19.2699 28.712 19.174C28.8974 19.076 29.1339 19.027 29.4215 19.027C29.8008 19.027 30.1428 19.1239 30.4474 19.3178C30.7543 19.5096 30.9972 19.794 31.1761 20.1712C31.3572 20.5462 31.4478 21.0064 31.4478 21.5518C31.4478 22.0909 31.3594 22.549 31.1825 22.9261C31.0057 23.3033 30.7649 23.5909 30.4602 23.7891C30.1555 23.9872 29.8104 24.0863 29.4247 24.0863C29.1435 24.0863 28.9102 24.0394 28.7248 23.9457C28.5394 23.8519 28.3903 23.739 28.2773 23.6069C28.1665 23.4727 28.0803 23.3459 28.0185 23.2266H27.9513V24H26.8136ZM27.9482 21.5455C27.9482 21.8629 27.9929 22.141 28.0824 22.3796C28.174 22.6183 28.305 22.8047 28.4755 22.9389C28.6481 23.071 28.8569 23.1371 29.1019 23.1371C29.3576 23.1371 29.5717 23.0689 29.7443 22.9325C29.9169 22.794 30.0469 22.6055 30.1342 22.3668C30.2237 22.1261 30.2685 21.8523 30.2685 21.5455C30.2685 21.2408 30.2248 20.9702 30.1374 20.7337C30.0501 20.4972 29.9201 20.3118 29.7475 20.1776C29.5749 20.0433 29.3597 19.9762 29.1019 19.9762C28.8548 19.9762 28.6449 20.0412 28.4723 20.1712C28.2997 20.3011 28.1687 20.4833 28.0792 20.7177C27.9918 20.9521 27.9482 21.228 27.9482 21.5455ZM36.3113 20.3885L35.2567 20.5036C35.2268 20.397 35.1746 20.2969 35.1001 20.2031C35.0276 20.1094 34.9296 20.0337 34.806 19.9762C34.6824 19.9187 34.5312 19.8899 34.3522 19.8899C34.1114 19.8899 33.909 19.9421 33.7449 20.0465C33.583 20.1509 33.5031 20.2862 33.5052 20.4524C33.5031 20.5952 33.5553 20.7113 33.6618 20.8008C33.7705 20.8903 33.9495 20.9638 34.1988 21.0213L35.0361 21.2003C35.5006 21.3004 35.8458 21.4592 36.0716 21.6765C36.2996 21.8938 36.4147 22.1783 36.4168 22.5298C36.4147 22.8388 36.3241 23.1115 36.1452 23.348C35.9683 23.5824 35.7222 23.7656 35.4069 23.8977C35.0915 24.0298 34.7293 24.0959 34.3202 24.0959C33.7194 24.0959 33.2357 23.9702 32.8692 23.7188C32.5028 23.4652 32.2844 23.1126 32.214 22.6609L33.3422 22.5522C33.3934 22.7738 33.502 22.9411 33.6682 23.054C33.8344 23.1669 34.0507 23.2234 34.317 23.2234C34.5919 23.2234 34.8124 23.1669 34.9786 23.054C35.1469 22.9411 35.2311 22.8015 35.2311 22.6353C35.2311 22.4947 35.1768 22.3786 35.0681 22.2869C34.9616 22.1953 34.7954 22.125 34.5695 22.076L33.7322 21.9002C33.2613 21.8022 32.9129 21.6371 32.6871 21.4048C32.4612 21.1705 32.3493 20.8743 32.3515 20.5163C32.3493 20.2138 32.4314 19.9517 32.5976 19.7301C32.7659 19.5064 32.9992 19.3338 33.2975 19.2124C33.5979 19.0888 33.9442 19.027 34.3362 19.027C34.9115 19.027 35.3643 19.1495 35.6945 19.3945C36.0269 19.6396 36.2325 19.9709 36.3113 20.3885Z" fill="url(#paint2_linear_244_14)"/>
<defs>
<linearGradient id="paint0_linear_244_14" x1="21.5" y1="9" x2="21.5" y2="32" gradientUnits="userSpaceOnUse">
<stop/>
<stop offset="1" stop-color="#1E3A8A"/>
</linearGradient>
<linearGradient id="paint1_linear_244_14" x1="13" y1="9" x2="13" y2="32" gradientUnits="userSpaceOnUse">
<stop/>
<stop offset="1" stop-color="#1E3A8A"/>
</linearGradient>
<linearGradient id="paint2_linear_244_14" x1="29" y1="15" x2="29" y2="26" gradientUnits="userSpaceOnUse">
<stop/>
<stop offset="1" stop-color="#1E3A8A"/>
</linearGradient>
</defs>
</svg>
